<svg id="レイヤー_1" data-name="レイヤー 1" xmlns="http://www.w3.org/2000/svg" viewBox="0 0 666.39 74.7"><defs><style>.cls-1{fill:#fff;}</style></defs><title>code4handai-logo</title><path class="cls-1" d="M48.9,20.75a15.66,15.66,0,0,0-3.5-3.95,16.1,16.1,0,0,0-4.75-2.65,16.43,16.43,0,0,0-5.55-1,18.31,18.31,0,0,0-9,2.05,17,17,0,0,0-6,5.5,24.2,24.2,0,0,0-3.35,7.85,39.07,39.07,0,0,0-1.05,9.1,36.33,36.33,0,0,0,1.05,8.75A23.78,23.78,0,0,0,20.1,54.1a17.11,17.11,0,0,0,6,5.45,18.31,18.31,0,0,0,9,2.05q7.2,0,11.25-4.4A20.34,20.34,0,0,0,51.3,45.6H66.5a36.2,36.2,0,0,1-3.1,12.1,29,29,0,0,1-6.6,9.2,28,28,0,0,1-9.6,5.8,35.27,35.27,0,0,1-12.1,2,36.61,36.61,0,0,1-14.75-2.85A31.62,31.62,0,0,1,9.3,64,34.72,34.72,0,0,1,2.4,52.25,43.12,43.12,0,0,1,0,37.7,44.64,44.64,0,0,1,2.4,22.85a35.64,35.64,0,0,1,6.9-12,31.48,31.48,0,0,1,11.05-8A36.12,36.12,0,0,1,35.1,0,36.09,36.09,0,0,1,46.25,1.7a30.08,30.08,0,0,1,9.4,5,26.74,26.74,0,0,1,6.85,8,28.85,28.85,0,0,1,3.4,11H50.7A12.93,12.93,0,0,0,48.9,20.75Z"/><path class="cls-1" d="M74,36.05A23.64,23.64,0,0,1,87.8,22,29.53,29.53,0,0,1,98.8,20a29.91,29.91,0,0,1,11,1.95,24,24,0,0,1,8.45,5.5,24.3,24.3,0,0,1,5.4,8.6,31.69,31.69,0,0,1,1.9,11.25,31.25,31.25,0,0,1-1.9,11.2,24.45,24.45,0,0,1-5.4,8.55,23.51,23.51,0,0,1-8.45,5.45,30.54,30.54,0,0,1-11,1.9,30.15,30.15,0,0,1-11-1.9,23.56,23.56,0,0,1-8.4-5.45A24.45,24.45,0,0,1,74,58.5a31.25,31.25,0,0,1-1.9-11.2A31.69,31.69,0,0,1,74,36.05Zm12.9,17.3a16,16,0,0,0,2,5.3A10.89,10.89,0,0,0,92.8,62.4a11.79,11.79,0,0,0,6,1.4,12.06,12.06,0,0,0,6-1.4,10.79,10.79,0,0,0,3.9-3.75,16,16,0,0,0,2-5.3,30.28,30.28,0,0,0,.6-6.05,31,31,0,0,0-.6-6.1,15.47,15.47,0,0,0-2-5.3,11.49,11.49,0,0,0-3.9-3.75,11.66,11.66,0,0,0-6-1.45,11.4,11.4,0,0,0-6,1.45A11.61,11.61,0,0,0,89,35.9a15.47,15.47,0,0,0-2,5.3,31,31,0,0,0-.6,6.1A30.28,30.28,0,0,0,86.9,53.35Z"/><path class="cls-1" d="M169.5,66.5a14.65,14.65,0,0,1-6.55,6,21.83,21.83,0,0,1-9.15,1.85,22.09,22.09,0,0,1-10.2-2.25,20.38,20.38,0,0,1-7.25-6.1,27.61,27.61,0,0,1-4.3-8.85,37,37,0,0,1-1.45-10.4,34.75,34.75,0,0,1,1.45-10,26.06,26.06,0,0,1,4.3-8.55A20.87,20.87,0,0,1,153.5,20,20.36,20.36,0,0,1,162.25,22a15.3,15.3,0,0,1,6.55,5.75h.2V1.7h14.2V73.1H169.7V66.5ZM168.9,41a15.14,15.14,0,0,0-2.05-5.2,11.57,11.57,0,0,0-3.75-3.65,11,11,0,0,0-5.8-1.4,11.55,11.55,0,0,0-5.9,1.4,11,11,0,0,0-3.85,3.7,16.14,16.14,0,0,0-2.1,5.25,28.14,28.14,0,0,0-.65,6.15,26.14,26.14,0,0,0,.7,6,16.13,16.13,0,0,0,2.25,5.35,12.4,12.4,0,0,0,3.9,3.8,10.51,10.51,0,0,0,5.65,1.45,11.31,11.31,0,0,0,5.85-1.4,10.69,10.69,0,0,0,3.75-3.75,16.91,16.91,0,0,0,2-5.35,31.57,31.57,0,0,0,.6-6.2A30.84,30.84,0,0,0,168.9,41Z"/><path class="cls-1" d="M207.1,60.7q3.19,3.11,9.2,3.1a12.71,12.71,0,0,0,7.4-2.15,9,9,0,0,0,3.8-4.55H240q-3,9.3-9.2,13.3a27.08,27.08,0,0,1-15,4,29.49,29.49,0,0,1-11-2,22.79,22.79,0,0,1-8.3-5.55,24.91,24.91,0,0,1-5.25-8.6,31.31,31.31,0,0,1-1.85-11,30.05,30.05,0,0,1,1.9-10.8,25,25,0,0,1,13.75-14.4A26.74,26.74,0,0,1,215.8,20a24.59,24.59,0,0,1,11.5,2.55,23,23,0,0,1,8,6.85,28.27,28.27,0,0,1,4.55,9.8,36.8,36.8,0,0,1,1,11.5H203.6Q203.9,57.6,207.1,60.7Zm16.05-27.2c-1.7-1.87-4.29-2.8-7.75-2.8a12.3,12.3,0,0,0-5.65,1.15,10.84,10.84,0,0,0-3.6,2.85,10.27,10.27,0,0,0-1.9,3.6,15.71,15.71,0,0,0-.65,3.4h23.1Q225.7,36.3,223.15,33.5Z"/><path class="cls-1" d="M269.3,56.9v-13L299.7,3.1h12.7V45.2h9.3V56.9h-9.3V73.1H298.9V56.9Zm29.3-36L280.5,45.2h18.4V20.9Z"/><path class="cls-1" d="M369.7,1.7V29.1h28.9V1.7h15.7V73.1H398.6V42.3H369.7V73.1H354V1.7Z"/><path class="cls-1" d="M424,37.3a16.47,16.47,0,0,1,2.5-8.3,16.89,16.89,0,0,1,5.6-5.3,24.44,24.44,0,0,1,7.65-2.85A43.19,43.19,0,0,1,448.3,20a57.45,57.45,0,0,1,7.9.55,24.22,24.22,0,0,1,7.3,2.15,14.41,14.41,0,0,1,5.4,4.45A12.44,12.44,0,0,1,471,34.7V61.6a53.39,53.39,0,0,0,.4,6.7,12,12,0,0,0,1.4,4.8H458.4a18.81,18.81,0,0,1-.65-2.45,19.32,19.32,0,0,1-.35-2.55,18.56,18.56,0,0,1-8,4.9,32.24,32.24,0,0,1-9.4,1.4,25.36,25.36,0,0,1-6.9-.9,15.69,15.69,0,0,1-5.6-2.8,13.09,13.09,0,0,1-3.75-4.8A16.21,16.21,0,0,1,422.4,59,15,15,0,0,1,424,51.75a12.83,12.83,0,0,1,4-4.55,18,18,0,0,1,5.6-2.55,57.84,57.84,0,0,1,6.35-1.35q3.19-.49,6.3-.8a38,38,0,0,0,5.5-.9,9.59,9.59,0,0,0,3.8-1.75,3.87,3.87,0,0,0,1.3-3.35,7.54,7.54,0,0,0-.75-3.65,5.54,5.54,0,0,0-2-2.1,8,8,0,0,0-2.9-1,23.36,23.36,0,0,0-3.55-.25,10.78,10.78,0,0,0-6.6,1.8c-1.6,1.2-2.54,3.2-2.8,6Zm32.8,10.5a6.42,6.42,0,0,1-2.25,1.25,23.13,23.13,0,0,1-2.9.75c-1,.2-2.12.37-3.25.5s-2.27.3-3.4.5a25.94,25.94,0,0,0-3.15.8,9,9,0,0,0-2.7,1.35,6.31,6.31,0,0,0-1.85,2.15,6.9,6.9,0,0,0-.7,3.3,6.64,6.64,0,0,0,.7,3.2,5.29,5.29,0,0,0,1.9,2A8,8,0,0,0,442,64.7a17.77,17.77,0,0,0,3.3.3,12.6,12.6,0,0,0,6.5-1.4,9.42,9.42,0,0,0,3.4-3.35,10.86,10.86,0,0,0,1.35-4,28.6,28.6,0,0,0,.25-3.2Z"/><path class="cls-1" d="M493.5,21.4v7.2h.3a16.29,16.29,0,0,1,7-6.55A20.17,20.17,0,0,1,509.6,20,24.2,24.2,0,0,1,519,21.55a13.88,13.88,0,0,1,5.75,4.3,16.69,16.69,0,0,1,2.95,6.7,42.1,42.1,0,0,1,.85,8.75V73.1H514.3V43.9q0-6.4-2-9.55c-1.34-2.1-3.7-3.15-7.1-3.15q-5.81,0-8.4,3.45T494.2,46V73.1H480V21.4Z"/><path class="cls-1" d="M574,66.5a14.55,14.55,0,0,1-6.55,6,21.82,21.82,0,0,1-9.14,1.85,22.09,22.09,0,0,1-10.2-2.25,20.3,20.3,0,0,1-7.25-6.1,27.41,27.41,0,0,1-4.3-8.85,37,37,0,0,1-1.45-10.4,34.75,34.75,0,0,1,1.45-10,25.87,25.87,0,0,1,4.3-8.55A20.84,20.84,0,0,1,558,20,20.3,20.3,0,0,1,566.74,22a15.33,15.33,0,0,1,6.56,5.75h.19V1.7h14.2V73.1h-13.5V66.5ZM573.4,41a15.34,15.34,0,0,0-2-5.2,11.57,11.57,0,0,0-3.75-3.65,11,11,0,0,0-5.8-1.4,11.53,11.53,0,0,0-5.9,1.4,11,11,0,0,0-3.85,3.7,16.38,16.38,0,0,0-2.11,5.25,28.76,28.76,0,0,0-.64,6.15,26.69,26.69,0,0,0,.69,6,16.56,16.56,0,0,0,2.25,5.35,12.54,12.54,0,0,0,3.91,3.8,10.51,10.51,0,0,0,5.65,1.45,11.31,11.31,0,0,0,5.85-1.4,10.69,10.69,0,0,0,3.75-3.75,17.16,17.16,0,0,0,2-5.35,31.57,31.57,0,0,0,.59-6.2A30.84,30.84,0,0,0,573.4,41Z"/><path class="cls-1" d="M595.79,37.3a16.57,16.57,0,0,1,2.5-8.3,17,17,0,0,1,5.61-5.3,24.48,24.48,0,0,1,7.64-2.85,43.34,43.34,0,0,1,8.55-.85,57.35,57.35,0,0,1,7.9.55,24.14,24.14,0,0,1,7.3,2.15,14.41,14.41,0,0,1,5.4,4.45,12.44,12.44,0,0,1,2.1,7.55V61.6a55.35,55.35,0,0,0,.4,6.7,12.32,12.32,0,0,0,1.4,4.8h-14.4a22.64,22.64,0,0,1-.65-2.45,23.36,23.36,0,0,1-.35-2.55,18.45,18.45,0,0,1-8,4.9,32.19,32.19,0,0,1-9.4,1.4,25.34,25.34,0,0,1-6.89-.9,15.82,15.82,0,0,1-5.61-2.8,13.09,13.09,0,0,1-3.75-4.8,16.36,16.36,0,0,1-1.35-6.9,15.12,15.12,0,0,1,1.55-7.25,13,13,0,0,1,4-4.55,18.14,18.14,0,0,1,5.6-2.55,58.34,58.34,0,0,1,6.35-1.35q3.21-.49,6.3-.8a37.58,37.58,0,0,0,5.5-.9,9.52,9.52,0,0,0,3.8-1.75,3.81,3.81,0,0,0,1.3-3.35,7.54,7.54,0,0,0-.75-3.65,5.47,5.47,0,0,0-2-2.1,7.91,7.91,0,0,0-2.9-1,23.22,23.22,0,0,0-3.54-.25,10.81,10.81,0,0,0-6.61,1.8q-2.4,1.8-2.8,6Zm32.8,10.5a6.42,6.42,0,0,1-2.25,1.25,22.69,22.69,0,0,1-2.9.75c-1,.2-2.11.37-3.25.5s-2.26.3-3.4.5a26.26,26.26,0,0,0-3.14.8A9.17,9.17,0,0,0,610.94,53a6.53,6.53,0,0,0-1.85,2.15,7,7,0,0,0-.69,3.3,6.76,6.76,0,0,0,.69,3.2,5.37,5.37,0,0,0,1.9,2,8.07,8.07,0,0,0,2.8,1.05,17.92,17.92,0,0,0,3.3.3,12.55,12.55,0,0,0,6.5-1.4,9.26,9.26,0,0,0,3.4-3.35,10.5,10.5,0,0,0,1.35-4,26.38,26.38,0,0,0,.25-3.2Z"/><path class="cls-1" d="M652.19,13.4V1.7h14.2V13.4Zm14.2,8V73.1h-14.2V21.4Z"/></svg>