<svg id="レイヤー_1" data-name="レイヤー 1" xmlns="http://www.w3.org/2000/svg" viewBox="0 0 1113.73 228.29"><defs><style>.cls-1{fill:#fff;}.cls-2{fill:none;stroke:#fff;stroke-miterlimit:10;stroke-width:5px;}</style></defs><title>mikke-logo-white</title><path class="cls-1" d="M80.38,56.75A63.38,63.38,0,1,1,17,120.13,63.45,63.45,0,0,1,80.38,56.75m0-10a73.38,73.38,0,1,0,73.37,73.38A73.38,73.38,0,0,0,80.38,46.75Z" transform="translate(-7 -8)"/><path class="cls-1" d="M186.18,223.17l-11.3,11.3a6.22,6.22,0,0,1-9-.2l-38.54-42.16a6.21,6.21,0,0,1,.2-8.58l7.68-7.68a6.21,6.21,0,0,1,8.58-.2L186,214.19A6.22,6.22,0,0,1,186.18,223.17Z" transform="translate(-7 -8)"/><path class="cls-1" d="M100.35,161.66c-13.06,7.54-27.72,8.94-39.69,5a38.62,38.62,0,0,0,61.26-28.69A51,51,0,0,1,100.35,161.66Z" transform="translate(-7 -8)"/><rect class="cls-1" x="86.93" y="111.97" width="10.59" height="23.99"/><rect class="cls-1" x="45.8" y="111.97" width="10.59" height="23.99"/><polygon class="cls-1" points="167.67 43.5 114.59 40.49 84.23 0 136.33 3.16 167.67 43.5"/><path class="cls-1" d="M120.4,51.26,101.06,25.47,82.31,45.18A73.33,73.33,0,0,1,145.37,82.3l8.26-29.16Z" transform="translate(-7 -8)"/><line class="cls-2" x1="156.99" y1="45.87" x2="156.79" y2="91.94"/><circle class="cls-2" cx="156.79" cy="101.43" r="7.12"/><path class="cls-1" d="M235.61,110.58l-15.24.36-.84-1V94.63l1.08-.72,14.76.36h7V73.15l1-.84h16.44l1,1v21h17V73l1-.84h16.8l1,1V94.27h4.44l17.16-.36,1.08.72V110l-.84,1-17.4-.36h-4.68c-.84,15.36-3.24,26.64-8.4,34.56-7,11.16-18.48,19.32-31.32,23.64a10.28,10.28,0,0,1-2.16.48,3.54,3.54,0,0,1-2.52-1.2L238,156.9c17.76-4.56,27.72-10.68,33.72-20.52,4-6.6,5.4-13.2,5.88-25.8H260.69v1.32l.48,21.24H241.73l.6-21.48v-1.08Z" transform="translate(-7 -8)"/><path class="cls-1" d="M416,129.66H362.33l-17.88.36-.84-1V111.9l1.08-.72,17.16.36h53.52l18.48-.36,1,.84v17l-.84,1Z" transform="translate(-7 -8)"/><path class="cls-1" d="M506.33,99.54a142.6,142.6,0,0,1-23.88,24.84c-1.32,1-2,1.44-2.88,1.44a4.26,4.26,0,0,1-1.92-.72l-14.28-8.64c18.84-14.28,31-29.15,39.72-48.35l1.08-.36,17.16,6.36.24,1.2c-1.56,3-3.12,5.76-4.92,8.64L532,83.71l9.12-.72,10.44,9.72c1.08,1,1.68,1.67,1.68,2.51a6.4,6.4,0,0,1-.72,2.41c-15.12,32.51-34.56,54.71-68.64,70.31a10.4,10.4,0,0,1-3.12,1,3.1,3.1,0,0,1-2-1l-14.88-11.52c26.76-8.76,52-27.84,65.4-57Z" transform="translate(-7 -8)"/><path class="cls-1" d="M571.61,153.06c16.08-13.8,25.08-34.2,25.92-61.07l1.08-.84,16.92,1.44,1,1c-1.32,28.56-11,50.16-25.08,65.76-1.2,1.2-1.8,1.68-2.64,1.68a3.79,3.79,0,0,1-1.92-.6Zm70.92-21.84a166.26,166.26,0,0,0,37-34.19l5.28,17.63a10.87,10.87,0,0,1,.6,2.64,3.11,3.11,0,0,1-1.08,2.16c-11.64,12.84-24.72,24.24-45.36,37.32a5.52,5.52,0,0,1-2.76,1.2c-.6,0-1.08-.36-1.92-1l-11.64-9.36,1-13.56V82.51l1-.84h17l1,1Z" transform="translate(-7 -8)"/><path class="cls-1" d="M731.45,96c6.6,5.76,18.6,12.23,29.4,15.71l.48,1.2-8.4,15.84-1.32.36c-11.52-4.44-22.92-10.56-31.08-18.84V109L730.37,96Zm1.32,39.83c11,7.56,25.44,12.72,44.4,16.56l.48.84-8,17.52-1.2.48c-17.76-4.08-35.76-11.88-47.16-20.16l-.12-1.2L731.57,136Zm11.28-67.55a178.34,178.34,0,0,1,33.24,14.4v1.2L766.85,98.34l-1.2.37a164,164,0,0,0-33.48-15.84l-.12-1,10.8-13.56Z" transform="translate(-7 -8)"/><path class="cls-1" d="M845.69,104a73.58,73.58,0,0,1,10.92,19.56l-.48,1.08-13,6-1.08-.36c-2.76-7.2-5.88-13.8-10.56-19.8l.48-1,12.6-5.52Zm58.8,1.56c-4.92,17.76-9.12,26.52-16.68,37.44-7.8,11.28-16.68,18.48-29.4,26a4.26,4.26,0,0,1-1.92.72,3.16,3.16,0,0,1-1.8-.72L842,160.74c15.48-8.16,22.68-13.92,30.6-24.48,7.8-10.32,11.76-19.44,15.6-36.72l1.08-.48,14.64,5.4Zm-36.6-7.79a63.24,63.24,0,0,1,11,18.71l-.48,1.08-12.72,6-1.08-.24A81.26,81.26,0,0,0,853.85,104l.36-1,12.6-5.53Z" transform="translate(-7 -8)"/><path class="cls-1" d="M971.69,105.79A147.54,147.54,0,0,1,958.61,124a3,3,0,0,1-1.68,1.2,6.37,6.37,0,0,1-2.64-.84l-14.64-6.84a118.13,118.13,0,0,0,28.44-49.43l1-.36,17.16,5,.36,1.2c-1.92,5.28-3.84,10.32-6.12,15.12h36.12l18.24-.36,1.08.71v15.72l-.84,1-18.48-.35h-6c-3.72,26.63-13,46.19-35.52,62.27-1.2.84-1.92,1.32-2.64,1.32s-1.44-.48-2.76-1.2l-15.24-8.88c21-11.76,33.72-30.36,36.48-53.51Z" transform="translate(-7 -8)"/><path class="cls-1" d="M1120.73,156.9a11.58,11.58,0,0,1-23.16,0,11.58,11.58,0,1,1,23.16,0Zm-2.16-21.36h-18.84V71.35h18.84Z" transform="translate(-7 -8)"/></svg>