<svg id="レイヤー_1" data-name="レイヤー 1" xmlns="http://www.w3.org/2000/svg" viewBox="0 0 1163.39 95.07"><defs><style>.cls-1{fill:#fff;}</style></defs><title>oulife-c4h</title><path class="cls-1" d="M531.06,34.45a16.18,16.18,0,0,0-3.58-4,16.85,16.85,0,0,0-10.55-3.69,18.72,18.72,0,0,0-9.21,2.1,17.43,17.43,0,0,0-6.15,5.63,24.84,24.84,0,0,0-3.43,8,40.42,40.42,0,0,0-1.07,9.32,37.56,37.56,0,0,0,1.07,9,24.32,24.32,0,0,0,3.43,7.84,17.58,17.58,0,0,0,6.15,5.58,18.72,18.72,0,0,0,9.21,2.1q7.38,0,11.52-4.51a20.75,20.75,0,0,0,5.07-11.88h15.57a37,37,0,0,1-3.18,12.39,29.47,29.47,0,0,1-6.76,9.42,28.51,28.51,0,0,1-9.83,5.94,35.87,35.87,0,0,1-12.39,2,37.38,37.38,0,0,1-15.1-2.92,32.32,32.32,0,0,1-11.32-8,35.57,35.57,0,0,1-7.06-12A44.11,44.11,0,0,1,481,51.81a45.69,45.69,0,0,1,2.46-15.21,36.59,36.59,0,0,1,7.06-12.23,32.58,32.58,0,0,1,11.32-8.2A39.27,39.27,0,0,1,528.35,15,31.09,31.09,0,0,1,538,20a27.38,27.38,0,0,1,7,8.25,29.57,29.57,0,0,1,3.48,11.26H532.91A13.23,13.23,0,0,0,531.06,34.45Z"/><path class="cls-1" d="M556.77,50.12A24.2,24.2,0,0,1,570.9,35.68a30.24,30.24,0,0,1,11.26-2,30.67,30.67,0,0,1,11.32,2,24.1,24.1,0,0,1,14.18,14.44,32.45,32.45,0,0,1,2,11.52,32,32,0,0,1-2,11.47,24.93,24.93,0,0,1-5.53,8.76,24.17,24.17,0,0,1-8.65,5.58,31.52,31.52,0,0,1-11.32,1.94,31.07,31.07,0,0,1-11.26-1.94,24.23,24.23,0,0,1-8.6-5.58,24.79,24.79,0,0,1-5.53-8.76,32,32,0,0,1-1.95-11.47A32.45,32.45,0,0,1,556.77,50.12ZM570,67.84a16.47,16.47,0,0,0,2.1,5.42A11.07,11.07,0,0,0,576,77.1a12,12,0,0,0,6.14,1.44,12.31,12.31,0,0,0,6.2-1.44,11,11,0,0,0,4-3.84,16.47,16.47,0,0,0,2.1-5.42,31,31,0,0,0,.62-6.2,31.84,31.84,0,0,0-.62-6.25,16,16,0,0,0-2.1-5.42,11.66,11.66,0,0,0-4-3.84,12,12,0,0,0-6.2-1.49A11.19,11.19,0,0,0,572.08,50a16,16,0,0,0-2.1,5.42,31.84,31.84,0,0,0-.62,6.25A31,31,0,0,0,570,67.84Z"/><path class="cls-1" d="M654.56,81.3a15,15,0,0,1-6.71,6.2,22.31,22.31,0,0,1-9.37,1.89A22.68,22.68,0,0,1,628,87.09a21,21,0,0,1-7.43-6.25,28.4,28.4,0,0,1-4.4-9.06,38,38,0,0,1-1.48-10.65,35.71,35.71,0,0,1,1.48-10.29,26.93,26.93,0,0,1,4.4-8.76A22.09,22.09,0,0,1,627.94,36a21.72,21.72,0,0,1,10.24-2.3,20.85,20.85,0,0,1,9,2,15.58,15.58,0,0,1,6.7,5.89h.21V15h14.54V88.06H654.77V81.3ZM654,55.14a15.49,15.49,0,0,0-2.1-5.33A11.8,11.8,0,0,0,648,46.08a11.22,11.22,0,0,0-5.94-1.44,11.74,11.74,0,0,0-6,1.44,11.3,11.3,0,0,0-3.95,3.79,16.89,16.89,0,0,0-2.15,5.37,29.45,29.45,0,0,0-.66,6.3,27.3,27.3,0,0,0,.71,6.14,16.75,16.75,0,0,0,2.31,5.48,12.76,12.76,0,0,0,4,3.89,10.84,10.84,0,0,0,5.79,1.49,11.5,11.5,0,0,0,6-1.44,10.87,10.87,0,0,0,3.84-3.84A17.34,17.34,0,0,0,654,67.79a32.33,32.33,0,0,0,.61-6.35A31.46,31.46,0,0,0,654,55.14Z"/><path class="cls-1" d="M693.06,75.36q3.29,3.18,9.42,3.18a12.93,12.93,0,0,0,7.58-2.2q3.18-2.2,3.89-4.66h12.8q-3.06,9.52-9.42,13.62A27.72,27.72,0,0,1,702,89.39a30.24,30.24,0,0,1-11.26-2,23.47,23.47,0,0,1-8.5-5.69,25.64,25.64,0,0,1-5.38-8.8,32.35,32.35,0,0,1-1.89-11.27,31.06,31.06,0,0,1,1.94-11.06A25.55,25.55,0,0,1,691,35.84a27.34,27.34,0,0,1,11-2.15,25.2,25.2,0,0,1,11.78,2.61,23.57,23.57,0,0,1,8.24,7,28.75,28.75,0,0,1,4.66,10,37.31,37.31,0,0,1,1,11.77h-38.2Q689.78,72.19,693.06,75.36ZM709.5,47.51q-2.61-2.86-7.94-2.87a12.68,12.68,0,0,0-5.78,1.18,11,11,0,0,0-3.69,2.92,10.59,10.59,0,0,0-1.94,3.69,16.38,16.38,0,0,0-.67,3.48h23.65Q712.11,50.38,709.5,47.51Z"/><path class="cls-1" d="M756.76,71.47V58.16l31.13-41.78h13V59.49h9.53v12h-9.53V88.06H787.07V71.47Zm30-36.86L768.23,59.49h18.84V34.61Z"/><path class="cls-1" d="M859.57,15V43h29.59V15h16.08V88.06H889.16V56.52H859.57V88.06H843.49V15Z"/><path class="cls-1" d="M915.17,51.4a17,17,0,0,1,2.56-8.5,17.53,17.53,0,0,1,5.74-5.43,25.08,25.08,0,0,1,7.83-2.91,44.56,44.56,0,0,1,8.76-.87,58.64,58.64,0,0,1,8.09.56,24.89,24.89,0,0,1,7.47,2.2A14.67,14.67,0,0,1,961.15,41a12.67,12.67,0,0,1,2.15,7.73V76.29a56,56,0,0,0,.41,6.86,12.21,12.21,0,0,0,1.44,4.91H950.4a21.06,21.06,0,0,1-.67-2.51,20.24,20.24,0,0,1-.35-2.61,19.07,19.07,0,0,1-8.2,5,33.06,33.06,0,0,1-9.62,1.43,25.83,25.83,0,0,1-7.07-.92,16.1,16.1,0,0,1-5.73-2.87,13.24,13.24,0,0,1-3.84-4.91,16.66,16.66,0,0,1-1.39-7.07,15.39,15.39,0,0,1,1.59-7.42,13.19,13.19,0,0,1,4.1-4.66A18.31,18.31,0,0,1,925,58.93a60.77,60.77,0,0,1,6.51-1.38q3.27-.52,6.45-.82a39.55,39.55,0,0,0,5.63-.93A9.77,9.77,0,0,0,947.43,54a3.94,3.94,0,0,0,1.33-3.43,7.77,7.77,0,0,0-.77-3.74,5.66,5.66,0,0,0-2-2.15,8,8,0,0,0-3-1,24.44,24.44,0,0,0-3.64-.26,11,11,0,0,0-6.76,1.85c-1.64,1.23-2.59,3.27-2.87,6.14Zm33.59,10.75a6.31,6.31,0,0,1-2.3,1.28,22.57,22.57,0,0,1-3,.77q-1.59.31-3.33.51c-1.16.14-2.32.31-3.48.52a23.88,23.88,0,0,0-3.23.82,9.39,9.39,0,0,0-2.76,1.38,6.52,6.52,0,0,0-1.9,2.2,7.06,7.06,0,0,0-.71,3.38,6.83,6.83,0,0,0,.71,3.28,5.53,5.53,0,0,0,2,2.09,7.94,7.94,0,0,0,2.87,1.08,18.61,18.61,0,0,0,3.37.31,12.82,12.82,0,0,0,6.66-1.44,9.54,9.54,0,0,0,3.48-3.43,11,11,0,0,0,1.38-4,28.19,28.19,0,0,0,.26-3.28Z"/><path class="cls-1" d="M986.34,35.12v7.37h.31a16.64,16.64,0,0,1,7.17-6.7,20.71,20.71,0,0,1,9-2.1,24.83,24.83,0,0,1,9.57,1.58,14.13,14.13,0,0,1,5.89,4.41,16.88,16.88,0,0,1,3,6.86,42.62,42.62,0,0,1,.87,9V88.06h-14.54V58.16q0-6.55-2-9.78t-7.27-3.23q-5.94,0-8.6,3.54t-2.66,11.62V88.06H972.52V35.12Z"/><path class="cls-1" d="M1068.77,81.3a15,15,0,0,1-6.7,6.2,22.37,22.37,0,0,1-9.37,1.89,22.75,22.75,0,0,1-10.45-2.3,21,21,0,0,1-7.42-6.25,28,28,0,0,1-4.4-9.06,37.65,37.65,0,0,1-1.49-10.65,35.38,35.38,0,0,1,1.49-10.29,26.54,26.54,0,0,1,4.4-8.76,21.36,21.36,0,0,1,17.56-8.39,20.82,20.82,0,0,1,9,2,15.67,15.67,0,0,1,6.71,5.89h.2V15h14.54V88.06H1069V81.3Zm-.61-26.16a15.49,15.49,0,0,0-2.1-5.33,11.8,11.8,0,0,0-3.84-3.73,11.22,11.22,0,0,0-5.94-1.44,11.77,11.77,0,0,0-6,1.44,11.27,11.27,0,0,0-3.94,3.79,16.66,16.66,0,0,0-2.15,5.37,28.83,28.83,0,0,0-.67,6.3,26.75,26.75,0,0,0,.72,6.14,16.73,16.73,0,0,0,2.3,5.48,12.69,12.69,0,0,0,4,3.89,10.78,10.78,0,0,0,5.78,1.49,11.48,11.48,0,0,0,6-1.44,10.71,10.71,0,0,0,3.84-3.84,17.1,17.1,0,0,0,2.05-5.47,32.33,32.33,0,0,0,.61-6.35A31.46,31.46,0,0,0,1068.16,55.14Z"/><path class="cls-1" d="M1091.1,51.4a16.87,16.87,0,0,1,2.56-8.5,17.5,17.5,0,0,1,5.73-5.43,25.05,25.05,0,0,1,7.84-2.91,44.54,44.54,0,0,1,8.75-.87,58.64,58.64,0,0,1,8.09.56,25,25,0,0,1,7.48,2.2,14.75,14.75,0,0,1,5.53,4.56,12.74,12.74,0,0,1,2.15,7.73V76.29a54.05,54.05,0,0,0,.41,6.86,12.38,12.38,0,0,0,1.43,4.91h-14.74a19.32,19.32,0,0,1-.67-2.51,22.16,22.16,0,0,1-.36-2.61,19,19,0,0,1-8.19,5,33.08,33.08,0,0,1-9.63,1.43,25.76,25.76,0,0,1-7.06-.92,16.06,16.06,0,0,1-5.74-2.87,13.24,13.24,0,0,1-3.84-4.91,16.67,16.67,0,0,1-1.38-7.07,15.39,15.39,0,0,1,1.59-7.42,13.26,13.26,0,0,1,4.09-4.66,18.47,18.47,0,0,1,5.74-2.61,60.6,60.6,0,0,1,6.5-1.38q3.27-.52,6.45-.82a39.07,39.07,0,0,0,5.63-.93,9.81,9.81,0,0,0,3.9-1.79,4,4,0,0,0,1.33-3.43,7.77,7.77,0,0,0-.77-3.74,5.73,5.73,0,0,0-2.05-2.15,8,8,0,0,0-3-1,24.4,24.4,0,0,0-3.63-.26,11,11,0,0,0-6.76,1.85c-1.64,1.23-2.6,3.27-2.87,6.14Zm33.59,10.75a6.44,6.44,0,0,1-2.31,1.28,22.17,22.17,0,0,1-3,.77q-1.59.31-3.33.51c-1.16.14-2.32.31-3.48.52a23.74,23.74,0,0,0-3.22.82,9.58,9.58,0,0,0-2.77,1.38,6.5,6.5,0,0,0-1.89,2.2A7.05,7.05,0,0,0,1104,73a6.83,6.83,0,0,0,.72,3.28,5.43,5.43,0,0,0,1.94,2.09,8,8,0,0,0,2.87,1.08,18.72,18.72,0,0,0,3.38.31,12.84,12.84,0,0,0,6.66-1.44,9.54,9.54,0,0,0,3.48-3.43,11,11,0,0,0,1.38-4,28.19,28.19,0,0,0,.26-3.28Z"/><path class="cls-1" d="M1148.85,26.93V15h14.54v12Zm14.54,8.19V88.06h-14.54V35.12Z"/><path class="cls-1" d="M51.09,0a12.24,12.24,0,0,0,2.25.89c15.93,2.88,25.75,12.72,30.33,27.7a63.35,63.35,0,0,1-.08,37.91C78.8,81.86,68.77,92.14,52.31,94.34s-31.39,0-42.83-14C-3.32,64.54-4.46,25.36,14.16,9.74,20.41,4.5,27.57,2.08,35.09,0Zm17,47.71-.64-.27C67,44,66.7,40.51,66.12,37.08a30.17,30.17,0,0,0-1.69-5.71C60.75,22,53.51,16.89,43.9,16.74,33.48,16.57,25.83,21.24,22,30.87a43.83,43.83,0,0,0,.27,34c3.77,9,11.07,13.63,20.81,13.63,9.48,0,16.91-4.23,20.49-13.15C65.83,59.78,66.65,53.62,68.1,47.71Z"/><path class="cls-1" d="M322.77,63.46a42.35,42.35,0,0,1-5.35.7c-12.32.06-24.65,0-37,0h-5.38c.06,7.71,3.26,12.69,9.27,14.94a16,16,0,0,0,17.8-4,8.85,8.85,0,0,1,5.31-2.51c4.3-.35,8.65-.08,13,0,.29,0,.57.22,1.19.49-2,8.74-7.54,14.64-15.44,18.26-9,4.11-18.44,4.26-27.78,1.3C265,88.42,257.92,78.85,257.05,65A69.13,69.13,0,0,1,258,48.6c2.52-14.14,13.25-23.34,28.09-24.8,15.39-1.51,28,5.23,33.42,18.22,1.52,3.63,2.22,7.61,3.29,11.44Zm-19-11.63c-.71-8.43-6.27-13.17-14.56-13-8,.15-13.18,5-13.51,13Z"/><path class="cls-1" d="M144.18,1.71h19.35c.09,1.31.29,2.73.29,4.14,0,16.82.08,33.64,0,50.46a79.46,79.46,0,0,1-1.07,12.41c-2.36,14.11-11.28,22.48-27,24.24a71,71,0,0,1-20.82-.87C101.7,89.6,92.89,80.55,92.31,67c-.92-21.58-.25-43.22-.25-65.21H111V55.93c0,1.5,0,3,.06,4.5,1,15.4,10.4,18.22,22.75,15.73,6.54-1.33,10-6.69,10.14-15.34.25-17.81.19-35.63.26-53.44Z"/><path class="cls-1" d="M231,39.42l-9-.42V26.68l8.35-.54c1.08-7.58-1-16.38,6.77-21.39,6.64-4.29,14.3-3.35,22.1-3v14C248,17.85,248,17.85,249,26.39h10.41V38.93l-10.8.5V92.09H231Z"/><path class="cls-1" d="M191.09,92.15H174V2.91h17.08Z"/><path class="cls-1" d="M201.25,25.79h17.14V92H201.25Z"/><path class="cls-1" d="M201.2,1.92h17.14V18.07H201.2Z"/><path class="cls-1" d="M376.2,62.43,391,47.69,376.1,32.89l9.08-9.08L400,38.61l14.74-14.75,8.84,8.89L408.87,47.49l14.89,14.9-9.08,9.08-14.9-14.9L385,71.32Z"/></svg>