<svg id="レイヤー_1" data-name="レイヤー 1" xmlns="http://www.w3.org/2000/svg" viewBox="0 0 322.77 95.07"><defs><style>.cls-1{fill:#fff;}</style></defs><title>oulife-logo</title><path class="cls-1" d="M51.09,0a12.24,12.24,0,0,0,2.25.89c15.93,2.88,25.75,12.72,30.33,27.7a63.35,63.35,0,0,1-.08,37.91C78.8,81.86,68.77,92.14,52.31,94.34s-31.39,0-42.83-14C-3.32,64.54-4.46,25.36,14.16,9.74,20.41,4.5,27.57,2.08,35.09,0Zm17,47.71-.64-.27C67,44,66.7,40.51,66.12,37.08a30.17,30.17,0,0,0-1.69-5.71C60.75,22,53.51,16.89,43.9,16.74,33.48,16.57,25.83,21.24,22,30.87a43.83,43.83,0,0,0,.27,34c3.77,9,11.07,13.63,20.81,13.63,9.48,0,16.91-4.23,20.49-13.15C65.83,59.78,66.65,53.62,68.1,47.71Z" transform="translate(0)"/><path class="cls-1" d="M322.77,63.46a42.35,42.35,0,0,1-5.35.7c-12.32.06-24.65,0-37,0h-5.38c.06,7.71,3.26,12.69,9.27,14.94a16,16,0,0,0,17.8-4,8.85,8.85,0,0,1,5.31-2.51c4.3-.35,8.65-.08,13,0,.29,0,.57.22,1.19.49-2,8.74-7.54,14.64-15.44,18.26-9,4.11-18.44,4.26-27.78,1.3C265,88.42,257.92,78.85,257.05,65A69.13,69.13,0,0,1,258,48.6c2.52-14.14,13.25-23.34,28.09-24.8,15.39-1.51,28,5.23,33.42,18.22,1.52,3.63,2.22,7.61,3.29,11.44Zm-19-11.63c-.71-8.43-6.27-13.17-14.56-13-8,.15-13.18,5-13.51,13Z" transform="translate(0)"/><path class="cls-1" d="M144.18,1.71h19.35c.09,1.31.29,2.73.29,4.14,0,16.82.08,33.64,0,50.46a79.46,79.46,0,0,1-1.07,12.41c-2.36,14.11-11.28,22.48-27,24.24a71,71,0,0,1-20.82-.87C101.7,89.6,92.89,80.55,92.31,67c-.92-21.58-.25-43.22-.25-65.21H111V55.93c0,1.5,0,3,.06,4.5,1,15.4,10.4,18.22,22.75,15.73,6.54-1.33,10-6.69,10.14-15.34.25-17.81.19-35.63.26-53.44Z" transform="translate(0)"/><path class="cls-1" d="M231,39.42l-9-.42V26.68l8.35-.54c1.08-7.58-1-16.38,6.77-21.39,6.64-4.29,14.3-3.35,22.1-3v14C248,17.85,248,17.85,249,26.39h10.41V38.93l-10.8.5V92.09H231Z" transform="translate(0)"/><path class="cls-1" d="M191.09,92.15H174V2.91h17.08Z" transform="translate(0)"/><path class="cls-1" d="M201.25,25.79h17.14V92H201.25Z" transform="translate(0)"/><path class="cls-1" d="M201.2,1.92h17.14V18.07H201.2Z" transform="translate(0)"/></svg>